<?xml version="1.0" encoding="UTF-8"?>
<svg id="Layer_2" xmlns="http://www.w3.org/2000/svg" xmlns:xlink="http://www.w3.org/1999/xlink" version="1.1" viewBox="0 0 157.68 156.67">
  <!-- Generator: Adobe Illustrator 30.6.0, SVG Export Plug-In . SVG Version: 2.1.4 Build 109)  -->
  <defs>
    <style>
      .st0 {
        fill: none;
      }

      .st1 {
        fill: #a1915e;
      }

      .st2 {
        fill: #37008e;
      }

      .st3 {
        fill: #b7b7b7;
      }

      .st4 {
        fill: #fff;
      }

      .st5 {
        fill: #af0dad;
      }

      .st6 {
        clip-path: url(#clippath);
      }
    </style>
    <clipPath id="clippath">
      <circle class="st0" cx="78.83" cy="75" r="75"/>
    </clipPath>
  </defs>
  <g class="st6">
    <g>
      <rect class="st2" x="3.83" width="150" height="150"/>
      <path class="st5" d="M157.5,140.16c-4.63-3.93-30.18-19.2-35.75-23.05-.24-.16-.86-.49-.46-.78,4.12-1.74,11.48-3.44,13.02-8.75.96-4.39,1.33-8.48.96-12.79-.4-4.73-.58-10.16-1.02-14.1-.66-3.76-2.17-9.48-2.92-13.02-1.08-4.77-3.46-11.03-4.84-15.68-1.82-5-3.29-10.28-6.1-14.8-3.75-5.77-6.99-11.82-11.78-16.62-3.98-3.58-7.04-7.13-10.91-10.04-10.94-6.75-25.4-6.8-36.62-.71-4.67,3.04-8.08,7.27-12.31,11.03-4.58,4.76-7.54,10.23-11.15,15.78-4.7,7.65-7.2,18.41-10.12,26.75-1.56,5.09-2.8,11.6-3.98,16.61-.59,4.21-.65,8.8-1.02,13.13-.45,4.1-.25,7.59.3,11.69.06,6.41,6.99,9.45,12.21,10.92.51.22,2.05.55,1.26,1.13-7.93,5.09-31.65,20.07-35.37,22.47-1.16.78-.8,1.67-.89,3.27,0,2.69,0,7.78,0,10.78,0,1.62,0,2.56.11,2.95.07.24.2.32.4.34,6.74-.27,61.36-1.59,78.7-2.09,3.64.22,60.28,1.55,77.83,2.1.28-.01.43-.08.51-.4.06-.25.08-.66.09-1.29-.08-3.13.19-11.19-.12-14.75l-.02-.07Z"/>
      <path d="M132.92,108.98c.02-1.35-.67-2.89-1.06-4.22-1.53-4.75-3.66-10.31-5.29-15.24-1.6-5.72-2.94-11.65-4.97-17.24-2.44-7.84-3.86-15.67-5.08-23.68-.31-2.41.16-4.31-1.14-6.06-.46-.67-1.11-1.14-1.85-1.5-2.3-1.1-5.82-2.56-8.23-3.73-14.22-8.18-24.08-15.05-40.66-6.93-4.62,2.29-8.83,5.37-13.52,7.51-2.71,1.39-6.03,2.29-8.34,4.06-1.96,1.93-1.3,4.41-1.7,7.05-.75,5.01-1.63,9.92-2.76,14.64-1.56,7.75-4.51,14.43-6.17,21.98-1.86,7.51-5.28,14.9-7.28,22.21-.46,1.95.38,2.11,2.71,2.69,1.17.3,2.64.68,4.23,1.08,5.3,1.27,11.39,3.14,16.5,4.02,4.39.73,8.8,1.47,13.27,2.22,5.62.88,11.7,2.07,16.92,2.77,6.46-.58,17.03-2.85,26.55-4.27,8.12-1.06,18.89-4.38,26.65-6.27.57-.17,1.07-.4,1.19-.99l.02-.1Z"/>
      <path class="st1" d="M109.67,60.58c-.56-1.39-1.37-2.38-1.47-4.04-.08-1.01,0-1.98.03-3.03.16-3.45.38-6.51-.19-9.76-.21-4.05-1.57-7.31-3.29-10.8-.68-1.62-2.01-2.68-3.64-4.11-1.47-1.2-2.84-2.73-4.47-3.61-2.64-1.06-7.29-2.13-10.55-3.16-1.41-.44-2.64-.65-4.09-.68-2.98.07-6.31-.29-9.24.34-2.87.76-7.19,2.08-9.9,2.84-1.64.47-2.22.71-3.42,1.72-1.28,1.12-3.49,3-4.85,4.27-1.72,1.59-2.35,3.96-3.35,6.03-1.07,2.21-1.26,3.88-1.57,6.45-.26,2.1-.58,4.1-.45,6.19.01,2.35.47,5.69.09,8.15-.32,1.43-1.13,2.35-1.58,3.96-.35,1.22-.44,2.54-.56,3.81-.94,7.19,1.11,15.72,2.14,22.46.17.7.17,1.58.96,1.63,2.68.15,19.49.63,25.38.84,7.46.28,22.83-.68,30.76-.78,1.47.03,1.71-.24,1.91-1.69.35-2.09,1.16-7.04,1.63-9.82.9-5.6,1.19-11.43-.23-17.07l-.06-.16Z"/>
      <path d="M82.5,74.86c.94-.5,2.07-1.06,3.13-1.08.63.12,1.33.72,1.81,1.09-.47.04-4.09.03-4.96,0l.02-.02Z"/>
      <polygon points="84.75 80.71 89.54 79.06 91.63 77.75 94.11 76.36 96.51 75.66 99.29 75.66 102.95 76.97 95.9 81.85 84.75 80.71"/>
      <path d="M85.83,61.5c2.22,3.55,7.15,4.95,10.84,6.42,3.82,1.43,8.41-1.73,7.64-5.86-.9-8.2-9.54-8.41-14.94-4.21-1.1,1.1-3.23,2.13-3.55,3.53v.11Z"/>
      <polygon class="st3" points="81.4 49.69 106.09 39.86 109.22 53.98 84.14 57.63 81.4 49.69"/>
      <path class="st4" d="M87.78,59.97c.06-.34.75-.7,1.13-.95,1.94-1.28,4.26-2.52,6.57-2.06,1.73.41,3.1,1.82,4.4,2.92.36.33.56.6.53.9-.81,1.94-3.38,3.23-5.42,3.01-2.78-.18-5.5-1.72-7.21-3.73v-.09Z"/>
      <circle cx="94.13" cy="60.31" r=".76"/>
      <path d="M75.15,74.86c-.94-.5-2.07-1.06-3.13-1.08-.63.12-1.33.72-1.81,1.09.47.04,4.09.03,4.96,0l-.02-.02Z"/>
      <polygon points="72.9 80.71 68.11 79.06 66.02 77.75 63.54 76.36 61.14 75.66 58.36 75.66 54.7 76.97 61.75 81.85 72.9 80.71"/>
      <path class="st3" d="M121.92,132.49c-.78-6.59-1.96-13.37-4.15-19.65-1.91-5.7-2.83-13.94-4.25-20.22-.58-2.71-1.33-6.63-2.07-9.62-.69-4.15-3.57-7.57-8.08-7.17-4.59.14-8.97,2.48-13.54,3.15-3.77.66-7.58-.13-11.36-.04-2.64-.03-5.3.38-7.96.3-7.96.03-21.17-9.31-24.11,2.98-2.07,8.45-3.48,16.84-5.12,25.39-.92,4.52-2.75,8.65-3.66,13.22-.84,4.4-1.88,9.78-1.99,13.52-.03,4.86.35,11.48.45,16.18.24,2.21-.38,4.28,1.61,4.17,7.97,0,57.99,0,76.47,0,1.75,0,3.33,0,5.01,0,1.72-.04,2.14.27,2.29-2.17.17-6.37.7-13.7.46-19.89v-.16Z"/>
      <path d="M71.85,61.49c-2.3,3.52-7,4.86-10.67,6.36-3.83,1.59-8.6-1.58-7.81-5.79.9-8.19,9.47-8.41,14.87-4.22,1.06,1.07,3.31,2.22,3.62,3.54v.11Z"/>
      <polygon class="st3" points="76.26 49.69 51.56 39.86 48.43 53.98 73.51 57.63 76.26 49.69"/>
      <path class="st4" d="M69.87,59.97c-.06-.34-.75-.7-1.13-.95-1.94-1.28-4.26-2.52-6.57-2.06-1.73.41-3.1,1.82-4.4,2.92-.36.33-.56.6-.53.9.81,1.94,3.38,3.23,5.42,3.01,2.78-.18,5.5-1.72,7.21-3.73v-.09Z"/>
      <circle cx="63.52" cy="60.31" r=".76"/>
      <path class="st5" d="M42.78,41.93c2.32-1.76,5.64-2.67,8.34-4.06,4.7-2.14,8.9-5.22,13.52-7.51,16.58-8.13,26.44-1.25,40.66,6.93,2.41,1.17,5.94,2.63,8.23,3.73.73.36,1.38.83,1.85,1.5,1.19,1.6.91,3.33,1.09,5.46h8.62c-1.29-3.73-2.63-7.47-4.71-10.8-3.75-5.77-6.99-11.82-11.78-16.62-3.98-3.58-7.04-7.13-10.91-10.04-10.94-6.75-25.4-6.8-36.62-.71-4.67,3.04-8.08,7.27-12.31,11.03-4.58,4.76-7.54,10.23-11.15,15.78-2.06,3.35-3.69,7.29-5.12,11.36h8.7c.17-2.26-.12-4.37,1.59-6.05Z"/>
    </g>
  </g>
</svg>